<?xml version="1.0" encoding="UTF-8" standalone="no"?>
<svg
   xmlns:dc="http://purl.org/dc/elements/1.1/"
   xmlns:cc="http://creativecommons.org/ns#"
   xmlns:rdf="http://www.w3.org/1999/02/22-rdf-syntax-ns#"
   xmlns:svg="http://www.w3.org/2000/svg"
   xmlns="http://www.w3.org/2000/svg"
   xmlns:sodipodi="http://sodipodi.sourceforge.net/DTD/sodipodi-0.dtd"
   xmlns:inkscape="http://www.inkscape.org/namespaces/inkscape"
   width="24.0px"
   height="24.0px"
   viewBox="0 0 24.0 24.0"
   version="1.1"
   id="SVGRoot"
   sodipodi:docname="heart-plus.svg"
   inkscape:version="1.0.2 (e86c870879, 2021-01-15, custom)">
  <defs
     id="defs1412" />
  <sodipodi:namedview
     id="base"
     pagecolor="#ffffff"
     bordercolor="#666666"
     borderopacity="1.0"
     inkscape:pageopacity="0.0"
     inkscape:pageshadow="2"
     inkscape:zoom="6.12"
     inkscape:cx="27.143791"
     inkscape:cy="23.944573"
     inkscape:document-units="px"
     inkscape:current-layer="layer1"
     inkscape:document-rotation="0"
     showgrid="true"
     inkscape:window-width="1366"
     inkscape:window-height="705"
     inkscape:window-x="-8"
     inkscape:window-y="-8"
     inkscape:window-maximized="1">
    <inkscape:grid
       type="xygrid"
       id="grid1982" />
  </sodipodi:namedview>
  <metadata
     id="metadata1415">
    <rdf:RDF>
      <cc:Work
         rdf:about="">
        <dc:format>image/svg+xml</dc:format>
        <dc:type
           rdf:resource="http://purl.org/dc/dcmitype/StillImage" />
        <dc:title />
      </cc:Work>
    </rdf:RDF>
  </metadata>
  <g
     inkscape:label="Livello 1"
     inkscape:groupmode="layer"
     id="layer1">
    <rect
       style="fill:#000000;fill-opacity:0.754098;stroke:none;stroke-width:68.919;stroke-linecap:round;stroke-linejoin:round;paint-order:stroke fill markers"
       id="rect1989"
       width="24"
       height="24"
       x="0"
       y="0"
       ry="5"
       rx="4" />
    <path
       d="m 12.000002,16.4 c 0,0.8 0.199999,1.536 0.535999,2.192 l -0.535999,0.488 -1.16,-1.056 C 6.7200005,14.288 4,11.816 4,8.8 4,6.328 5.9360005,4.4 8.4000005,4.4 c 1.3920005,0 2.7280015,0.648 3.6000015,1.664 0.872,-1.016 2.207999,-1.664 3.599999,-1.664 2.464,0 4.4,1.928 4.4,4.4 0,1.144 -0.399999,2.208 -1.103998,3.288 -0.632001,-0.304 -1.344001,-0.488 -2.096,-0.488 -2.648001,0 -4.800001,2.152 -4.800001,4.8 m 5.600001,-3.2 h -1.600001 v 2.4 h -2.4 v 1.6 h 2.4 v 2.4 h 1.600001 v -2.4 h 2.399999 v -1.6 h -2.399999 z"
       id="path1991"
       style="opacity:0.996;fill:#ffffff;stroke-width:0.799999" />
  </g>
</svg>
