<?xml version="1.0" encoding="UTF-8" standalone="no"?>
<svg
   xmlns:dc="http://purl.org/dc/elements/1.1/"
   xmlns:cc="http://creativecommons.org/ns#"
   xmlns:rdf="http://www.w3.org/1999/02/22-rdf-syntax-ns#"
   xmlns:svg="http://www.w3.org/2000/svg"
   xmlns="http://www.w3.org/2000/svg"
   xmlns:sodipodi="http://sodipodi.sourceforge.net/DTD/sodipodi-0.dtd"
   xmlns:inkscape="http://www.inkscape.org/namespaces/inkscape"
   width="24.0px"
   height="24.0px"
   viewBox="0 0 24.0 24.0"
   version="1.1"
   id="SVGRoot"
   sodipodi:docname="heart-minus.svg"
   inkscape:version="1.0.2 (e86c870879, 2021-01-15, custom)">
  <defs
     id="defs1412" />
  <sodipodi:namedview
     id="base"
     pagecolor="#ffffff"
     bordercolor="#666666"
     borderopacity="1.0"
     inkscape:pageopacity="0.0"
     inkscape:pageshadow="2"
     inkscape:zoom="6.12"
     inkscape:cx="27.143791"
     inkscape:cy="37.016468"
     inkscape:document-units="px"
     inkscape:current-layer="layer1"
     inkscape:document-rotation="0"
     showgrid="true"
     inkscape:window-width="1366"
     inkscape:window-height="705"
     inkscape:window-x="-8"
     inkscape:window-y="-8"
     inkscape:window-maximized="1">
    <inkscape:grid
       type="xygrid"
       id="grid1982" />
  </sodipodi:namedview>
  <metadata
     id="metadata1415">
    <rdf:RDF>
      <cc:Work
         rdf:about="">
        <dc:format>image/svg+xml</dc:format>
        <dc:type
           rdf:resource="http://purl.org/dc/dcmitype/StillImage" />
        <dc:title />
      </cc:Work>
    </rdf:RDF>
  </metadata>
  <g
     inkscape:label="Livello 1"
     inkscape:groupmode="layer"
     id="layer1">
    <rect
       style="fill:#000000;fill-opacity:0.754098;stroke:none;stroke-width:68.919;stroke-linecap:round;stroke-linejoin:round;paint-order:stroke fill markers"
       id="rect1989"
       width="24"
       height="24"
       x="0"
       y="0"
       ry="5"
       rx="4" />
    <path
       d="m 12,16.825068 c 0,0.828338 0.2,1.590409 0.536,2.269646 L 12,19.6 10.84,18.506594 C 6.72,14.638256 4,12.078692 4,8.9558584 4,6.3962943 5.936,4.4 8.4,4.4 9.792,4.4 11.128,5.0709537 12,6.1229428 12.872,5.0709537 14.208,4.4 15.6,4.4 c 2.464,0 4.4,1.9962943 4.4,4.5558584 0,1.1845236 -0.4,2.2862126 -1.104,3.4044686 -0.632,-0.314768 -1.344,-0.505286 -2.096,-0.505286 -2.648,0 -4.8,2.228229 -4.8,4.970027 m 1.6,-0.828338 v 1.656676 H 20 V 15.99673 Z"
       id="path2019"
       style="fill:#ffffff;stroke-width:0.814045" />
  </g>
</svg>
